<?xml version="1.0" encoding="utf-8" standalone="no"?>
<!DOCTYPE svg PUBLIC "-//W3C//DTD SVG 1.1//EN"
  "http://www.w3.org/Graphics/SVG/1.1/DTD/svg11.dtd">
<svg xmlns:xlink="http://www.w3.org/1999/xlink" width="460.8pt" height="345.6pt" viewBox="0 0 460.8 345.6" xmlns="http://www.w3.org/2000/svg" version="1.1">
 <metadata>
  <rdf:RDF xmlns:dc="http://purl.org/dc/elements/1.1/" xmlns:cc="http://creativecommons.org/ns#" xmlns:rdf="http://www.w3.org/1999/02/22-rdf-syntax-ns#">
   <cc:Work>
    <dc:type rdf:resource="http://purl.org/dc/dcmitype/StillImage"/>
    <dc:date>2025-01-25T17:17:56.138338</dc:date>
    <dc:format>image/svg+xml</dc:format>
    <dc:creator>
     <cc:Agent>
      <dc:title>Matplotlib v3.8.0, https://matplotlib.org/</dc:title>
     </cc:Agent>
    </dc:creator>
   </cc:Work>
  </rdf:RDF>
 </metadata>
 <defs>
  <style type="text/css">*{stroke-linejoin: round; stroke-linecap: butt}</style>
 </defs>
 <g id="figure_1">
  <g id="patch_1">
   <path d="M 0 345.6 
L 460.8 345.6 
L 460.8 0 
L 0 0 
z
" style="fill: #ffffff"/>
  </g>
  <g id="axes_1">
   <g id="patch_2">
    <path d="M 57.6 307.584 
L 414.72 307.584 
L 414.72 41.472 
L 57.6 41.472 
z
" style="fill: #ffffff"/>
   </g>
   <g id="PolyCollection_1">
    <path d="M 57.6 139.274213 
L 57.6 184.057668 
L 61.1712 270.447073 
L 64.7424 271.892194 
L 68.3136 236.441705 
L 71.8848 249.447117 
L 75.456 264.081066 
L 79.0272 259.690585 
L 82.5984 284.176761 
L 86.1696 274.933903 
L 89.7408 272.246624 
L 93.312 273.547807 
L 96.8832 264.027173 
L 100.4544 271.684484 
L 104.0256 266.451067 
L 107.5968 266.488754 
L 111.168 261.032015 
L 114.7392 251.175251 
L 118.3104 246.368865 
L 121.8816 237.920252 
L 125.4528 232.835431 
L 129.024 220.484543 
L 132.5952 210.25735 
L 136.1664 198.273374 
L 139.7376 189.40812 
L 143.3088 180.798376 
L 146.88 169.781047 
L 150.4512 162.077898 
L 154.0224 156.615652 
L 157.5936 143.76047 
L 161.1648 139.169315 
L 164.736 128.388972 
L 168.3072 125.777254 
L 171.8784 116.108289 
L 175.4496 115.869907 
L 179.0208 106.618276 
L 182.592 106.918817 
L 186.1632 98.04751 
L 189.7344 101.284623 
L 193.3056 92.861581 
L 196.8768 97.855738 
L 200.448 88.282622 
L 204.0192 95.491037 
L 207.5904 84.306308 
L 211.1616 93.157293 
L 214.7328 81.817378 
L 218.304 91.490702 
L 221.8752 79.742255 
L 225.4464 89.461345 
L 229.0176 78.748784 
L 232.5888 91.058561 
L 236.16 77.527968 
L 239.7312 89.730925 
L 243.3024 77.165974 
L 246.8736 90.009289 
L 250.4448 76.28646 
L 254.016 87.814539 
L 257.5872 76.808265 
L 261.1584 88.004654 
L 264.7296 75.925601 
L 268.3008 86.433223 
L 271.872 77.321492 
L 275.4432 87.369456 
L 279.0144 75.943791 
L 282.5856 87.924527 
L 286.1568 74.786026 
L 289.728 88.359891 
L 293.2992 74.599363 
L 296.8704 89.890461 
L 300.4416 75.22568 
L 304.0128 89.982673 
L 307.584 76.891473 
L 311.1552 91.804598 
L 314.7264 75.300899 
L 318.2976 93.701742 
L 321.8688 75.20553 
L 325.44 98.176149 
L 329.0112 77.687115 
L 332.5824 100.379609 
L 336.1536 75.283596 
L 339.7248 99.021282 
L 343.296 76.959235 
L 346.8672 112.139152 
L 350.4384 73.205167 
L 354.0096 109.981762 
L 357.5808 82.39572 
L 361.152 123.240101 
L 364.7232 85.135331 
L 368.2944 123.911471 
L 371.8656 75.969998 
L 375.4368 182.559839 
L 379.008 77.68333 
L 382.5792 111.008752 
L 386.1504 113.887093 
L 389.7216 121.69406 
L 393.2928 109.154259 
L 396.864 128.230134 
L 400.4352 132.633455 
L 404.0064 140.987363 
L 411.1488 147.588735 
L 418.2912 162.259682 
L 425.4336 98.027694 
L 432.576 169.700746 
L 439.7184 118.17708 
L 446.8608 171.531879 
L 454.0032 208.679952 
L 461.1456 156.946217 
L 468.288 122.549002 
L 475.4304 152.323532 
L 482.5728 117.945318 
L 489.7152 194.320933 
L 496.8576 134.531523 
L 504 152.323532 
L 511.1424 206.304609 
L 518.2848 159.489603 
L 525.4272 241.427326 
L 532.5696 190.040631 
L 539.712 160.287994 
L 546.8544 163.113569 
L 553.9968 210.554237 
L 553.9968 53.81674 
L 553.9968 53.81674 
L 546.8544 49.577816 
L 539.712 42.833481 
L 532.5696 52.388757 
L 525.4272 44.862654 
L 518.2848 42.984326 
L 511.1424 64.694113 
L 504 54.750498 
L 496.8576 47.144876 
L 489.7152 69.160237 
L 482.5728 42.273717 
L 475.4304 54.750498 
L 468.288 46.04673 
L 461.1456 48.93734 
L 454.0032 88.777626 
L 446.8608 63.997077 
L 439.7184 53.52692 
L 432.576 79.161544 
L 425.4336 42.064807 
L 418.2912 80.672805 
L 411.1488 70.682099 
L 404.0064 73.668746 
L 400.4352 104.294325 
L 396.864 78.539094 
L 393.2928 54.592365 
L 389.7216 73.830824 
L 386.1504 60.297697 
L 382.5792 70.774601 
L 379.008 49.216206 
L 375.4368 172.445675 
L 371.8656 53.218562 
L 368.2944 108.339051 
L 364.7232 64.924926 
L 361.152 109.713837 
L 357.5808 66.953516 
L 354.0096 98.55108 
L 350.4384 62.22924 
L 346.8672 102.258334 
L 343.296 67.667262 
L 339.7248 91.019966 
L 336.1536 67.78052 
L 332.5824 93.40836 
L 329.0112 71.229894 
L 325.44 92.135462 
L 321.8688 69.83282 
L 318.2976 88.653978 
L 314.7264 70.786325 
L 311.1552 87.445816 
L 307.584 72.837844 
L 304.0128 86.083364 
L 300.4416 71.683505 
L 296.8704 86.392954 
L 293.2992 71.549429 
L 289.728 85.287373 
L 286.1568 71.98252 
L 282.5856 85.074333 
L 279.0144 73.326508 
L 275.4432 84.762139 
L 271.872 74.926075 
L 268.3008 84.060477 
L 264.7296 73.70022 
L 261.1584 85.726548 
L 257.5872 74.701294 
L 254.016 85.679047 
L 250.4448 74.359252 
L 246.8736 87.986579 
L 243.3024 75.320257 
L 239.7312 87.82233 
L 236.16 75.818255 
L 232.5888 89.250721 
L 229.0176 77.127187 
L 225.4464 87.783197 
L 221.8752 78.19224 
L 218.304 89.888411 
L 214.7328 80.30177 
L 211.1616 91.591878 
L 207.5904 82.838886 
L 204.0192 93.937221 
L 200.448 86.799738 
L 196.8768 96.342155 
L 193.3056 91.362349 
L 189.7344 99.764088 
L 186.1632 96.576704 
L 182.592 105.418875 
L 179.0208 105.051791 
L 175.4496 114.249281 
L 171.8784 114.467072 
L 168.3072 124.081051 
L 164.736 126.658339 
L 161.1648 137.337734 
L 157.5936 141.79599 
L 154.0224 154.568466 
L 150.4512 159.864601 
L 146.88 167.370618 
L 143.3088 178.162508 
L 139.7376 186.449374 
L 136.1664 194.915041 
L 132.5952 206.452036 
L 129.024 216.058838 
L 125.4528 227.91465 
L 121.8816 232.202829 
L 118.3104 239.761162 
L 114.7392 243.609937 
L 111.168 252.876441 
L 107.5968 256.682813 
L 104.0256 254.960706 
L 100.4544 257.678662 
L 96.8832 245.930998 
L 93.312 251.926785 
L 89.7408 246.633596 
L 86.1696 243.598118 
L 82.5984 251.089898 
L 79.0272 205.762217 
L 75.456 214.099473 
L 71.8848 174.527999 
L 68.3136 153.803596 
L 64.7424 196.93187 
L 61.1712 167.760623 
L 57.6 139.274213 
z
" clip-path="url(#p34e578234a)" style="fill: #1f77b4; fill-opacity: 0.5"/>
   </g>
   <g id="matplotlib.axis_1">
    <g id="xtick_1">
     <g id="line2d_1">
      <defs>
       <path id="m95a206f137" d="M 0 0 
L 0 3.5 
" style="stroke: #000000; stroke-width: 0.8"/>
      </defs>
      <g>
       <use xlink:href="#m95a206f137" x="57.6" y="307.584" style="stroke: #000000; stroke-width: 0.8"/>
      </g>
     </g>
     <g id="text_1">
      <!-- −140 -->
      <g transform="translate(43.866406 322.182437) scale(0.1 -0.1)">
       <defs>
        <path id="DejaVuSans-2212" d="M 678 2272 
L 4684 2272 
L 4684 1741 
L 678 1741 
L 678 2272 
z
" transform="scale(0.015625)"/>
        <path id="DejaVuSans-31" d="M 794 531 
L 1825 531 
L 1825 4091 
L 703 3866 
L 703 4441 
L 1819 4666 
L 2450 4666 
L 2450 531 
L 3481 531 
L 3481 0 
L 794 0 
L 794 531 
z
" transform="scale(0.015625)"/>
        <path id="DejaVuSans-34" d="M 2419 4116 
L 825 1625 
L 2419 1625 
L 2419 4116 
z
M 2253 4666 
L 3047 4666 
L 3047 1625 
L 3713 1625 
L 3713 1100 
L 3047 1100 
L 3047 0 
L 2419 0 
L 2419 1100 
L 313 1100 
L 313 1709 
L 2253 4666 
z
" transform="scale(0.015625)"/>
        <path id="DejaVuSans-30" d="M 2034 4250 
Q 1547 4250 1301 3770 
Q 1056 3291 1056 2328 
Q 1056 1369 1301 889 
Q 1547 409 2034 409 
Q 2525 409 2770 889 
Q 3016 1369 3016 2328 
Q 3016 3291 2770 3770 
Q 2525 4250 2034 4250 
z
M 2034 4750 
Q 2819 4750 3233 4129 
Q 3647 3509 3647 2328 
Q 3647 1150 3233 529 
Q 2819 -91 2034 -91 
Q 1250 -91 836 529 
Q 422 1150 422 2328 
Q 422 3509 836 4129 
Q 1250 4750 2034 4750 
z
" transform="scale(0.015625)"/>
       </defs>
       <use xlink:href="#DejaVuSans-2212"/>
       <use xlink:href="#DejaVuSans-31" x="83.789062"/>
       <use xlink:href="#DejaVuSans-34" x="147.412109"/>
       <use xlink:href="#DejaVuSans-30" x="211.035156"/>
      </g>
     </g>
    </g>
    <g id="xtick_2">
     <g id="line2d_2">
      <g>
       <use xlink:href="#m95a206f137" x="129.024" y="307.584" style="stroke: #000000; stroke-width: 0.8"/>
      </g>
     </g>
     <g id="text_2">
      <!-- −120 -->
      <g transform="translate(115.290406 322.182437) scale(0.1 -0.1)">
       <defs>
        <path id="DejaVuSans-32" d="M 1228 531 
L 3431 531 
L 3431 0 
L 469 0 
L 469 531 
Q 828 903 1448 1529 
Q 2069 2156 2228 2338 
Q 2531 2678 2651 2914 
Q 2772 3150 2772 3378 
Q 2772 3750 2511 3984 
Q 2250 4219 1831 4219 
Q 1534 4219 1204 4116 
Q 875 4013 500 3803 
L 500 4441 
Q 881 4594 1212 4672 
Q 1544 4750 1819 4750 
Q 2544 4750 2975 4387 
Q 3406 4025 3406 3419 
Q 3406 3131 3298 2873 
Q 3191 2616 2906 2266 
Q 2828 2175 2409 1742 
Q 1991 1309 1228 531 
z
" transform="scale(0.015625)"/>
       </defs>
       <use xlink:href="#DejaVuSans-2212"/>
       <use xlink:href="#DejaVuSans-31" x="83.789062"/>
       <use xlink:href="#DejaVuSans-32" x="147.412109"/>
       <use xlink:href="#DejaVuSans-30" x="211.035156"/>
      </g>
     </g>
    </g>
    <g id="xtick_3">
     <g id="line2d_3">
      <g>
       <use xlink:href="#m95a206f137" x="200.448" y="307.584" style="stroke: #000000; stroke-width: 0.8"/>
      </g>
     </g>
     <g id="text_3">
      <!-- −100 -->
      <g transform="translate(186.714406 322.182437) scale(0.1 -0.1)">
       <use xlink:href="#DejaVuSans-2212"/>
       <use xlink:href="#DejaVuSans-31" x="83.789062"/>
       <use xlink:href="#DejaVuSans-30" x="147.412109"/>
       <use xlink:href="#DejaVuSans-30" x="211.035156"/>
      </g>
     </g>
    </g>
    <g id="xtick_4">
     <g id="line2d_4">
      <g>
       <use xlink:href="#m95a206f137" x="271.872" y="307.584" style="stroke: #000000; stroke-width: 0.8"/>
      </g>
     </g>
     <g id="text_4">
      <!-- −80 -->
      <g transform="translate(261.319656 322.182437) scale(0.1 -0.1)">
       <defs>
        <path id="DejaVuSans-38" d="M 2034 2216 
Q 1584 2216 1326 1975 
Q 1069 1734 1069 1313 
Q 1069 891 1326 650 
Q 1584 409 2034 409 
Q 2484 409 2743 651 
Q 3003 894 3003 1313 
Q 3003 1734 2745 1975 
Q 2488 2216 2034 2216 
z
M 1403 2484 
Q 997 2584 770 2862 
Q 544 3141 544 3541 
Q 544 4100 942 4425 
Q 1341 4750 2034 4750 
Q 2731 4750 3128 4425 
Q 3525 4100 3525 3541 
Q 3525 3141 3298 2862 
Q 3072 2584 2669 2484 
Q 3125 2378 3379 2068 
Q 3634 1759 3634 1313 
Q 3634 634 3220 271 
Q 2806 -91 2034 -91 
Q 1263 -91 848 271 
Q 434 634 434 1313 
Q 434 1759 690 2068 
Q 947 2378 1403 2484 
z
M 1172 3481 
Q 1172 3119 1398 2916 
Q 1625 2713 2034 2713 
Q 2441 2713 2670 2916 
Q 2900 3119 2900 3481 
Q 2900 3844 2670 4047 
Q 2441 4250 2034 4250 
Q 1625 4250 1398 4047 
Q 1172 3844 1172 3481 
z
" transform="scale(0.015625)"/>
       </defs>
       <use xlink:href="#DejaVuSans-2212"/>
       <use xlink:href="#DejaVuSans-38" x="83.789062"/>
       <use xlink:href="#DejaVuSans-30" x="147.412109"/>
      </g>
     </g>
    </g>
    <g id="xtick_5">
     <g id="line2d_5">
      <g>
       <use xlink:href="#m95a206f137" x="343.296" y="307.584" style="stroke: #000000; stroke-width: 0.8"/>
      </g>
     </g>
     <g id="text_5">
      <!-- −60 -->
      <g transform="translate(332.743656 322.182437) scale(0.1 -0.1)">
       <defs>
        <path id="DejaVuSans-36" d="M 2113 2584 
Q 1688 2584 1439 2293 
Q 1191 2003 1191 1497 
Q 1191 994 1439 701 
Q 1688 409 2113 409 
Q 2538 409 2786 701 
Q 3034 994 3034 1497 
Q 3034 2003 2786 2293 
Q 2538 2584 2113 2584 
z
M 3366 4563 
L 3366 3988 
Q 3128 4100 2886 4159 
Q 2644 4219 2406 4219 
Q 1781 4219 1451 3797 
Q 1122 3375 1075 2522 
Q 1259 2794 1537 2939 
Q 1816 3084 2150 3084 
Q 2853 3084 3261 2657 
Q 3669 2231 3669 1497 
Q 3669 778 3244 343 
Q 2819 -91 2113 -91 
Q 1303 -91 875 529 
Q 447 1150 447 2328 
Q 447 3434 972 4092 
Q 1497 4750 2381 4750 
Q 2619 4750 2861 4703 
Q 3103 4656 3366 4563 
z
" transform="scale(0.015625)"/>
       </defs>
       <use xlink:href="#DejaVuSans-2212"/>
       <use xlink:href="#DejaVuSans-36" x="83.789062"/>
       <use xlink:href="#DejaVuSans-30" x="147.412109"/>
      </g>
     </g>
    </g>
    <g id="xtick_6">
     <g id="line2d_6">
      <g>
       <use xlink:href="#m95a206f137" x="414.72" y="307.584" style="stroke: #000000; stroke-width: 0.8"/>
      </g>
     </g>
     <g id="text_6">
      <!-- −40 -->
      <g transform="translate(404.167656 322.182437) scale(0.1 -0.1)">
       <use xlink:href="#DejaVuSans-2212"/>
       <use xlink:href="#DejaVuSans-34" x="83.789062"/>
       <use xlink:href="#DejaVuSans-30" x="147.412109"/>
      </g>
     </g>
    </g>
    <g id="text_7">
     <!-- Signal Strength (dB) -->
     <g transform="translate(185.490469 335.860562) scale(0.1 -0.1)">
      <defs>
       <path id="DejaVuSans-53" d="M 3425 4513 
L 3425 3897 
Q 3066 4069 2747 4153 
Q 2428 4238 2131 4238 
Q 1616 4238 1336 4038 
Q 1056 3838 1056 3469 
Q 1056 3159 1242 3001 
Q 1428 2844 1947 2747 
L 2328 2669 
Q 3034 2534 3370 2195 
Q 3706 1856 3706 1288 
Q 3706 609 3251 259 
Q 2797 -91 1919 -91 
Q 1588 -91 1214 -16 
Q 841 59 441 206 
L 441 856 
Q 825 641 1194 531 
Q 1563 422 1919 422 
Q 2459 422 2753 634 
Q 3047 847 3047 1241 
Q 3047 1584 2836 1778 
Q 2625 1972 2144 2069 
L 1759 2144 
Q 1053 2284 737 2584 
Q 422 2884 422 3419 
Q 422 4038 858 4394 
Q 1294 4750 2059 4750 
Q 2388 4750 2728 4690 
Q 3069 4631 3425 4513 
z
" transform="scale(0.015625)"/>
       <path id="DejaVuSans-69" d="M 603 3500 
L 1178 3500 
L 1178 0 
L 603 0 
L 603 3500 
z
M 603 4863 
L 1178 4863 
L 1178 4134 
L 603 4134 
L 603 4863 
z
" transform="scale(0.015625)"/>
       <path id="DejaVuSans-67" d="M 2906 1791 
Q 2906 2416 2648 2759 
Q 2391 3103 1925 3103 
Q 1463 3103 1205 2759 
Q 947 2416 947 1791 
Q 947 1169 1205 825 
Q 1463 481 1925 481 
Q 2391 481 2648 825 
Q 2906 1169 2906 1791 
z
M 3481 434 
Q 3481 -459 3084 -895 
Q 2688 -1331 1869 -1331 
Q 1566 -1331 1297 -1286 
Q 1028 -1241 775 -1147 
L 775 -588 
Q 1028 -725 1275 -790 
Q 1522 -856 1778 -856 
Q 2344 -856 2625 -561 
Q 2906 -266 2906 331 
L 2906 616 
Q 2728 306 2450 153 
Q 2172 0 1784 0 
Q 1141 0 747 490 
Q 353 981 353 1791 
Q 353 2603 747 3093 
Q 1141 3584 1784 3584 
Q 2172 3584 2450 3431 
Q 2728 3278 2906 2969 
L 2906 3500 
L 3481 3500 
L 3481 434 
z
" transform="scale(0.015625)"/>
       <path id="DejaVuSans-6e" d="M 3513 2113 
L 3513 0 
L 2938 0 
L 2938 2094 
Q 2938 2591 2744 2837 
Q 2550 3084 2163 3084 
Q 1697 3084 1428 2787 
Q 1159 2491 1159 1978 
L 1159 0 
L 581 0 
L 581 3500 
L 1159 3500 
L 1159 2956 
Q 1366 3272 1645 3428 
Q 1925 3584 2291 3584 
Q 2894 3584 3203 3211 
Q 3513 2838 3513 2113 
z
" transform="scale(0.015625)"/>
       <path id="DejaVuSans-61" d="M 2194 1759 
Q 1497 1759 1228 1600 
Q 959 1441 959 1056 
Q 959 750 1161 570 
Q 1363 391 1709 391 
Q 2188 391 2477 730 
Q 2766 1069 2766 1631 
L 2766 1759 
L 2194 1759 
z
M 3341 1997 
L 3341 0 
L 2766 0 
L 2766 531 
Q 2569 213 2275 61 
Q 1981 -91 1556 -91 
Q 1019 -91 701 211 
Q 384 513 384 1019 
Q 384 1609 779 1909 
Q 1175 2209 1959 2209 
L 2766 2209 
L 2766 2266 
Q 2766 2663 2505 2880 
Q 2244 3097 1772 3097 
Q 1472 3097 1187 3025 
Q 903 2953 641 2809 
L 641 3341 
Q 956 3463 1253 3523 
Q 1550 3584 1831 3584 
Q 2591 3584 2966 3190 
Q 3341 2797 3341 1997 
z
" transform="scale(0.015625)"/>
       <path id="DejaVuSans-6c" d="M 603 4863 
L 1178 4863 
L 1178 0 
L 603 0 
L 603 4863 
z
" transform="scale(0.015625)"/>
       <path id="DejaVuSans-20" transform="scale(0.015625)"/>
       <path id="DejaVuSans-74" d="M 1172 4494 
L 1172 3500 
L 2356 3500 
L 2356 3053 
L 1172 3053 
L 1172 1153 
Q 1172 725 1289 603 
Q 1406 481 1766 481 
L 2356 481 
L 2356 0 
L 1766 0 
Q 1100 0 847 248 
Q 594 497 594 1153 
L 594 3053 
L 172 3053 
L 172 3500 
L 594 3500 
L 594 4494 
L 1172 4494 
z
" transform="scale(0.015625)"/>
       <path id="DejaVuSans-72" d="M 2631 2963 
Q 2534 3019 2420 3045 
Q 2306 3072 2169 3072 
Q 1681 3072 1420 2755 
Q 1159 2438 1159 1844 
L 1159 0 
L 581 0 
L 581 3500 
L 1159 3500 
L 1159 2956 
Q 1341 3275 1631 3429 
Q 1922 3584 2338 3584 
Q 2397 3584 2469 3576 
Q 2541 3569 2628 3553 
L 2631 2963 
z
" transform="scale(0.015625)"/>
       <path id="DejaVuSans-65" d="M 3597 1894 
L 3597 1613 
L 953 1613 
Q 991 1019 1311 708 
Q 1631 397 2203 397 
Q 2534 397 2845 478 
Q 3156 559 3463 722 
L 3463 178 
Q 3153 47 2828 -22 
Q 2503 -91 2169 -91 
Q 1331 -91 842 396 
Q 353 884 353 1716 
Q 353 2575 817 3079 
Q 1281 3584 2069 3584 
Q 2775 3584 3186 3129 
Q 3597 2675 3597 1894 
z
M 3022 2063 
Q 3016 2534 2758 2815 
Q 2500 3097 2075 3097 
Q 1594 3097 1305 2825 
Q 1016 2553 972 2059 
L 3022 2063 
z
" transform="scale(0.015625)"/>
       <path id="DejaVuSans-68" d="M 3513 2113 
L 3513 0 
L 2938 0 
L 2938 2094 
Q 2938 2591 2744 2837 
Q 2550 3084 2163 3084 
Q 1697 3084 1428 2787 
Q 1159 2491 1159 1978 
L 1159 0 
L 581 0 
L 581 4863 
L 1159 4863 
L 1159 2956 
Q 1366 3272 1645 3428 
Q 1925 3584 2291 3584 
Q 2894 3584 3203 3211 
Q 3513 2838 3513 2113 
z
" transform="scale(0.015625)"/>
       <path id="DejaVuSans-28" d="M 1984 4856 
Q 1566 4138 1362 3434 
Q 1159 2731 1159 2009 
Q 1159 1288 1364 580 
Q 1569 -128 1984 -844 
L 1484 -844 
Q 1016 -109 783 600 
Q 550 1309 550 2009 
Q 550 2706 781 3412 
Q 1013 4119 1484 4856 
L 1984 4856 
z
" transform="scale(0.015625)"/>
       <path id="DejaVuSans-64" d="M 2906 2969 
L 2906 4863 
L 3481 4863 
L 3481 0 
L 2906 0 
L 2906 525 
Q 2725 213 2448 61 
Q 2172 -91 1784 -91 
Q 1150 -91 751 415 
Q 353 922 353 1747 
Q 353 2572 751 3078 
Q 1150 3584 1784 3584 
Q 2172 3584 2448 3432 
Q 2725 3281 2906 2969 
z
M 947 1747 
Q 947 1113 1208 752 
Q 1469 391 1925 391 
Q 2381 391 2643 752 
Q 2906 1113 2906 1747 
Q 2906 2381 2643 2742 
Q 2381 3103 1925 3103 
Q 1469 3103 1208 2742 
Q 947 2381 947 1747 
z
" transform="scale(0.015625)"/>
       <path id="DejaVuSans-42" d="M 1259 2228 
L 1259 519 
L 2272 519 
Q 2781 519 3026 730 
Q 3272 941 3272 1375 
Q 3272 1813 3026 2020 
Q 2781 2228 2272 2228 
L 1259 2228 
z
M 1259 4147 
L 1259 2741 
L 2194 2741 
Q 2656 2741 2882 2914 
Q 3109 3088 3109 3444 
Q 3109 3797 2882 3972 
Q 2656 4147 2194 4147 
L 1259 4147 
z
M 628 4666 
L 2241 4666 
Q 2963 4666 3353 4366 
Q 3744 4066 3744 3513 
Q 3744 3084 3544 2831 
Q 3344 2578 2956 2516 
Q 3422 2416 3680 2098 
Q 3938 1781 3938 1306 
Q 3938 681 3513 340 
Q 3088 0 2303 0 
L 628 0 
L 628 4666 
z
" transform="scale(0.015625)"/>
       <path id="DejaVuSans-29" d="M 513 4856 
L 1013 4856 
Q 1481 4119 1714 3412 
Q 1947 2706 1947 2009 
Q 1947 1309 1714 600 
Q 1481 -109 1013 -844 
L 513 -844 
Q 928 -128 1133 580 
Q 1338 1288 1338 2009 
Q 1338 2731 1133 3434 
Q 928 4138 513 4856 
z
" transform="scale(0.015625)"/>
      </defs>
      <use xlink:href="#DejaVuSans-53"/>
      <use xlink:href="#DejaVuSans-69" x="63.476562"/>
      <use xlink:href="#DejaVuSans-67" x="91.259766"/>
      <use xlink:href="#DejaVuSans-6e" x="154.736328"/>
      <use xlink:href="#DejaVuSans-61" x="218.115234"/>
      <use xlink:href="#DejaVuSans-6c" x="279.394531"/>
      <use xlink:href="#DejaVuSans-20" x="307.177734"/>
      <use xlink:href="#DejaVuSans-53" x="338.964844"/>
      <use xlink:href="#DejaVuSans-74" x="402.441406"/>
      <use xlink:href="#DejaVuSans-72" x="441.650391"/>
      <use xlink:href="#DejaVuSans-65" x="480.513672"/>
      <use xlink:href="#DejaVuSans-6e" x="542.037109"/>
      <use xlink:href="#DejaVuSans-67" x="605.416016"/>
      <use xlink:href="#DejaVuSans-74" x="668.892578"/>
      <use xlink:href="#DejaVuSans-68" x="708.101562"/>
      <use xlink:href="#DejaVuSans-20" x="771.480469"/>
      <use xlink:href="#DejaVuSans-28" x="803.267578"/>
      <use xlink:href="#DejaVuSans-64" x="842.28125"/>
      <use xlink:href="#DejaVuSans-42" x="905.757812"/>
      <use xlink:href="#DejaVuSans-29" x="974.361328"/>
     </g>
    </g>
   </g>
   <g id="matplotlib.axis_2">
    <g id="ytick_1">
     <g id="line2d_7">
      <defs>
       <path id="m3ffdc8006c" d="M 0 0 
L -3.5 0 
" style="stroke: #000000; stroke-width: 0.8"/>
      </defs>
      <g>
       <use xlink:href="#m3ffdc8006c" x="57.6" y="307.584" style="stroke: #000000; stroke-width: 0.8"/>
      </g>
     </g>
     <g id="text_8">
      <!-- 0.0 -->
      <g transform="translate(34.696875 311.383219) scale(0.1 -0.1)">
       <defs>
        <path id="DejaVuSans-2e" d="M 684 794 
L 1344 794 
L 1344 0 
L 684 0 
L 684 794 
z
" transform="scale(0.015625)"/>
       </defs>
       <use xlink:href="#DejaVuSans-30"/>
       <use xlink:href="#DejaVuSans-2e" x="63.623047"/>
       <use xlink:href="#DejaVuSans-30" x="95.410156"/>
      </g>
     </g>
    </g>
    <g id="ytick_2">
     <g id="line2d_8">
      <g>
       <use xlink:href="#m3ffdc8006c" x="57.6" y="254.3616" style="stroke: #000000; stroke-width: 0.8"/>
      </g>
     </g>
     <g id="text_9">
      <!-- 0.2 -->
      <g transform="translate(34.696875 258.160819) scale(0.1 -0.1)">
       <use xlink:href="#DejaVuSans-30"/>
       <use xlink:href="#DejaVuSans-2e" x="63.623047"/>
       <use xlink:href="#DejaVuSans-32" x="95.410156"/>
      </g>
     </g>
    </g>
    <g id="ytick_3">
     <g id="line2d_9">
      <g>
       <use xlink:href="#m3ffdc8006c" x="57.6" y="201.1392" style="stroke: #000000; stroke-width: 0.8"/>
      </g>
     </g>
     <g id="text_10">
      <!-- 0.4 -->
      <g transform="translate(34.696875 204.938419) scale(0.1 -0.1)">
       <use xlink:href="#DejaVuSans-30"/>
       <use xlink:href="#DejaVuSans-2e" x="63.623047"/>
       <use xlink:href="#DejaVuSans-34" x="95.410156"/>
      </g>
     </g>
    </g>
    <g id="ytick_4">
     <g id="line2d_10">
      <g>
       <use xlink:href="#m3ffdc8006c" x="57.6" y="147.9168" style="stroke: #000000; stroke-width: 0.8"/>
      </g>
     </g>
     <g id="text_11">
      <!-- 0.6 -->
      <g transform="translate(34.696875 151.716019) scale(0.1 -0.1)">
       <use xlink:href="#DejaVuSans-30"/>
       <use xlink:href="#DejaVuSans-2e" x="63.623047"/>
       <use xlink:href="#DejaVuSans-36" x="95.410156"/>
      </g>
     </g>
    </g>
    <g id="ytick_5">
     <g id="line2d_11">
      <g>
       <use xlink:href="#m3ffdc8006c" x="57.6" y="94.6944" style="stroke: #000000; stroke-width: 0.8"/>
      </g>
     </g>
     <g id="text_12">
      <!-- 0.8 -->
      <g transform="translate(34.696875 98.493619) scale(0.1 -0.1)">
       <use xlink:href="#DejaVuSans-30"/>
       <use xlink:href="#DejaVuSans-2e" x="63.623047"/>
       <use xlink:href="#DejaVuSans-38" x="95.410156"/>
      </g>
     </g>
    </g>
    <g id="ytick_6">
     <g id="line2d_12">
      <g>
       <use xlink:href="#m3ffdc8006c" x="57.6" y="41.472" style="stroke: #000000; stroke-width: 0.8"/>
      </g>
     </g>
     <g id="text_13">
      <!-- 1.0 -->
      <g transform="translate(34.696875 45.271219) scale(0.1 -0.1)">
       <use xlink:href="#DejaVuSans-31"/>
       <use xlink:href="#DejaVuSans-2e" x="63.623047"/>
       <use xlink:href="#DejaVuSans-30" x="95.410156"/>
      </g>
     </g>
    </g>
    <g id="text_14">
     <!-- Connectivity Success Rate -->
     <g transform="translate(28.617187 240.627219) rotate(-90) scale(0.1 -0.1)">
      <defs>
       <path id="DejaVuSans-43" d="M 4122 4306 
L 4122 3641 
Q 3803 3938 3442 4084 
Q 3081 4231 2675 4231 
Q 1875 4231 1450 3742 
Q 1025 3253 1025 2328 
Q 1025 1406 1450 917 
Q 1875 428 2675 428 
Q 3081 428 3442 575 
Q 3803 722 4122 1019 
L 4122 359 
Q 3791 134 3420 21 
Q 3050 -91 2638 -91 
Q 1578 -91 968 557 
Q 359 1206 359 2328 
Q 359 3453 968 4101 
Q 1578 4750 2638 4750 
Q 3056 4750 3426 4639 
Q 3797 4528 4122 4306 
z
" transform="scale(0.015625)"/>
       <path id="DejaVuSans-6f" d="M 1959 3097 
Q 1497 3097 1228 2736 
Q 959 2375 959 1747 
Q 959 1119 1226 758 
Q 1494 397 1959 397 
Q 2419 397 2687 759 
Q 2956 1122 2956 1747 
Q 2956 2369 2687 2733 
Q 2419 3097 1959 3097 
z
M 1959 3584 
Q 2709 3584 3137 3096 
Q 3566 2609 3566 1747 
Q 3566 888 3137 398 
Q 2709 -91 1959 -91 
Q 1206 -91 779 398 
Q 353 888 353 1747 
Q 353 2609 779 3096 
Q 1206 3584 1959 3584 
z
" transform="scale(0.015625)"/>
       <path id="DejaVuSans-63" d="M 3122 3366 
L 3122 2828 
Q 2878 2963 2633 3030 
Q 2388 3097 2138 3097 
Q 1578 3097 1268 2742 
Q 959 2388 959 1747 
Q 959 1106 1268 751 
Q 1578 397 2138 397 
Q 2388 397 2633 464 
Q 2878 531 3122 666 
L 3122 134 
Q 2881 22 2623 -34 
Q 2366 -91 2075 -91 
Q 1284 -91 818 406 
Q 353 903 353 1747 
Q 353 2603 823 3093 
Q 1294 3584 2113 3584 
Q 2378 3584 2631 3529 
Q 2884 3475 3122 3366 
z
" transform="scale(0.015625)"/>
       <path id="DejaVuSans-76" d="M 191 3500 
L 800 3500 
L 1894 563 
L 2988 3500 
L 3597 3500 
L 2284 0 
L 1503 0 
L 191 3500 
z
" transform="scale(0.015625)"/>
       <path id="DejaVuSans-79" d="M 2059 -325 
Q 1816 -950 1584 -1140 
Q 1353 -1331 966 -1331 
L 506 -1331 
L 506 -850 
L 844 -850 
Q 1081 -850 1212 -737 
Q 1344 -625 1503 -206 
L 1606 56 
L 191 3500 
L 800 3500 
L 1894 763 
L 2988 3500 
L 3597 3500 
L 2059 -325 
z
" transform="scale(0.015625)"/>
       <path id="DejaVuSans-75" d="M 544 1381 
L 544 3500 
L 1119 3500 
L 1119 1403 
Q 1119 906 1312 657 
Q 1506 409 1894 409 
Q 2359 409 2629 706 
Q 2900 1003 2900 1516 
L 2900 3500 
L 3475 3500 
L 3475 0 
L 2900 0 
L 2900 538 
Q 2691 219 2414 64 
Q 2138 -91 1772 -91 
Q 1169 -91 856 284 
Q 544 659 544 1381 
z
M 1991 3584 
L 1991 3584 
z
" transform="scale(0.015625)"/>
       <path id="DejaVuSans-73" d="M 2834 3397 
L 2834 2853 
Q 2591 2978 2328 3040 
Q 2066 3103 1784 3103 
Q 1356 3103 1142 2972 
Q 928 2841 928 2578 
Q 928 2378 1081 2264 
Q 1234 2150 1697 2047 
L 1894 2003 
Q 2506 1872 2764 1633 
Q 3022 1394 3022 966 
Q 3022 478 2636 193 
Q 2250 -91 1575 -91 
Q 1294 -91 989 -36 
Q 684 19 347 128 
L 347 722 
Q 666 556 975 473 
Q 1284 391 1588 391 
Q 1994 391 2212 530 
Q 2431 669 2431 922 
Q 2431 1156 2273 1281 
Q 2116 1406 1581 1522 
L 1381 1569 
Q 847 1681 609 1914 
Q 372 2147 372 2553 
Q 372 3047 722 3315 
Q 1072 3584 1716 3584 
Q 2034 3584 2315 3537 
Q 2597 3491 2834 3397 
z
" transform="scale(0.015625)"/>
       <path id="DejaVuSans-52" d="M 2841 2188 
Q 3044 2119 3236 1894 
Q 3428 1669 3622 1275 
L 4263 0 
L 3584 0 
L 2988 1197 
Q 2756 1666 2539 1819 
Q 2322 1972 1947 1972 
L 1259 1972 
L 1259 0 
L 628 0 
L 628 4666 
L 2053 4666 
Q 2853 4666 3247 4331 
Q 3641 3997 3641 3322 
Q 3641 2881 3436 2590 
Q 3231 2300 2841 2188 
z
M 1259 4147 
L 1259 2491 
L 2053 2491 
Q 2509 2491 2742 2702 
Q 2975 2913 2975 3322 
Q 2975 3731 2742 3939 
Q 2509 4147 2053 4147 
L 1259 4147 
z
" transform="scale(0.015625)"/>
      </defs>
      <use xlink:href="#DejaVuSans-43"/>
      <use xlink:href="#DejaVuSans-6f" x="69.824219"/>
      <use xlink:href="#DejaVuSans-6e" x="131.005859"/>
      <use xlink:href="#DejaVuSans-6e" x="194.384766"/>
      <use xlink:href="#DejaVuSans-65" x="257.763672"/>
      <use xlink:href="#DejaVuSans-63" x="319.287109"/>
      <use xlink:href="#DejaVuSans-74" x="374.267578"/>
      <use xlink:href="#DejaVuSans-69" x="413.476562"/>
      <use xlink:href="#DejaVuSans-76" x="441.259766"/>
      <use xlink:href="#DejaVuSans-69" x="500.439453"/>
      <use xlink:href="#DejaVuSans-74" x="528.222656"/>
      <use xlink:href="#DejaVuSans-79" x="567.431641"/>
      <use xlink:href="#DejaVuSans-20" x="626.611328"/>
      <use xlink:href="#DejaVuSans-53" x="658.398438"/>
      <use xlink:href="#DejaVuSans-75" x="721.875"/>
      <use xlink:href="#DejaVuSans-63" x="785.253906"/>
      <use xlink:href="#DejaVuSans-63" x="840.234375"/>
      <use xlink:href="#DejaVuSans-65" x="895.214844"/>
      <use xlink:href="#DejaVuSans-73" x="956.738281"/>
      <use xlink:href="#DejaVuSans-73" x="1008.837891"/>
      <use xlink:href="#DejaVuSans-20" x="1060.9375"/>
      <use xlink:href="#DejaVuSans-52" x="1092.724609"/>
      <use xlink:href="#DejaVuSans-61" x="1159.957031"/>
      <use xlink:href="#DejaVuSans-74" x="1221.236328"/>
      <use xlink:href="#DejaVuSans-65" x="1260.445312"/>
     </g>
    </g>
   </g>
   <g id="line2d_13">
    <path d="M 57.6 161.2224 
L 61.1712 227.7504 
L 64.7424 241.056 
L 68.3136 198.409846 
L 71.8848 214.754233 
L 75.456 241.877333 
L 79.0272 235.008 
L 82.5984 270.452093 
L 86.1696 261.094554 
L 89.7408 260.623059 
L 93.312 263.624496 
L 96.8832 255.550927 
L 100.4544 265.0752 
L 104.0256 260.964211 
L 107.5968 261.776485 
L 111.168 257.076384 
L 114.7392 247.465939 
L 118.3104 243.105236 
L 121.8816 235.098865 
L 125.4528 230.39469 
L 129.024 218.281371 
L 132.5952 208.36166 
L 136.1664 196.59676 
L 139.7376 187.930784 
L 143.3088 179.480406 
L 146.88 168.575869 
L 150.4512 160.97011 
L 154.0224 155.591097 
L 157.5936 142.776364 
L 161.1648 138.251893 
L 164.736 127.522152 
L 168.3072 124.926876 
L 171.8784 115.285428 
L 175.4496 115.056594 
L 179.0208 105.832589 
L 182.592 106.166082 
L 186.1632 97.308384 
L 189.7344 100.521351 
L 193.3056 92.107832 
L 196.8768 97.095847 
L 200.448 87.53684 
L 204.0192 94.709846 
L 207.5904 83.568057 
L 211.1616 92.370085 
L 214.7328 81.054484 
L 218.304 90.684749 
L 221.8752 78.95956 
L 225.4464 88.615778 
L 229.0176 77.93178 
L 232.5888 90.149789 
L 236.16 76.66297 
L 239.7312 88.769571 
L 243.3024 76.232894 
L 246.8736 88.990057 
L 250.4448 75.313539 
L 254.016 86.737704 
L 257.5872 75.741376 
L 261.1584 86.855304 
L 264.7296 74.797663 
L 268.3008 85.235381 
L 271.872 76.106566 
L 275.4432 86.046795 
L 279.0144 74.617731 
L 282.5856 86.483169 
L 286.1568 73.359138 
L 289.728 86.804916 
L 293.2992 73.04461 
L 296.8704 88.11801 
L 300.4416 73.408856 
L 304.0128 87.999153 
L 307.584 74.817998 
L 311.1552 89.588999 
L 314.7264 72.978457 
L 318.2976 91.130436 
L 321.8688 72.413702 
L 325.44 95.091582 
L 329.0112 74.352854 
L 332.5824 96.810713 
L 336.1536 71.343106 
L 339.7248 94.907755 
L 343.296 72.026365 
L 346.8672 107.081717 
L 350.4384 67.2768 
L 354.0096 104.096793 
L 357.5808 73.937664 
L 361.152 116.329522 
L 364.7232 73.946685 
L 368.2944 115.856503 
L 371.8656 62.4384 
L 375.4368 177.502426 
L 379.008 59.017846 
L 382.5792 87.97701 
L 386.1504 81.639849 
L 389.7216 94.037333 
L 393.2928 73.924683 
L 396.864 96.059077 
L 400.4352 117.638332 
L 404.0064 101.952 
L 411.1488 102.2976 
L 418.2912 114.048 
L 425.4336 53.042087 
L 432.576 117.504 
L 439.7184 75.809032 
L 446.8608 104.086588 
L 454.0032 141.264 
L 461.1456 82.412308 
L 461.8 80.983345 
" clip-path="url(#p34e578234a)" style="fill: none; stroke: #1f77b4; stroke-width: 1.5; stroke-linecap: square"/>
   </g>
   <g id="line2d_14">
    <path d="M 146.88 307.584 
L 146.88 174.528 
" clip-path="url(#p34e578234a)" style="fill: none; stroke-dasharray: 5.55,2.4; stroke-dashoffset: 0; stroke: #808080; stroke-width: 1.5"/>
   </g>
   <g id="line2d_15">
    <path d="M 57.6 174.528 
L 146.88 174.528 
" clip-path="url(#p34e578234a)" style="fill: none; stroke-dasharray: 5.55,2.4; stroke-dashoffset: 0; stroke: #808080; stroke-width: 1.5"/>
   </g>
   <g id="line2d_16">
    <path d="M 179.0208 307.584 
L 179.0208 108 
" clip-path="url(#p34e578234a)" style="fill: none; stroke-dasharray: 5.55,2.4; stroke-dashoffset: 0; stroke: #808080; stroke-width: 1.5"/>
   </g>
   <g id="line2d_17">
    <path d="M 57.6 108 
L 179.0208 108 
" clip-path="url(#p34e578234a)" style="fill: none; stroke-dasharray: 5.55,2.4; stroke-dashoffset: 0; stroke: #808080; stroke-width: 1.5"/>
   </g>
   <g id="line2d_18">
    <path d="M 214.7328 307.584 
L 214.7328 81.3888 
" clip-path="url(#p34e578234a)" style="fill: none; stroke-dasharray: 5.55,2.4; stroke-dashoffset: 0; stroke: #808080; stroke-width: 1.5"/>
   </g>
   <g id="line2d_19">
    <path d="M 57.6 81.3888 
L 214.7328 81.3888 
" clip-path="url(#p34e578234a)" style="fill: none; stroke-dasharray: 5.55,2.4; stroke-dashoffset: 0; stroke: #808080; stroke-width: 1.5"/>
   </g>
   <g id="patch_3">
    <path d="M 57.6 307.584 
L 57.6 41.472 
" style="fill: none; stroke: #000000; stroke-width: 0.8; stroke-linejoin: miter; stroke-linecap: square"/>
   </g>
   <g id="patch_4">
    <path d="M 57.6 307.584 
L 414.72 307.584 
" style="fill: none; stroke: #000000; stroke-width: 0.8; stroke-linejoin: miter; stroke-linecap: square"/>
   </g>
   <g id="text_15">
    <!-- 50% : -115 dB -->
    <g style="fill: #808080" transform="translate(61.1712 170.53632) scale(0.1 -0.1)">
     <defs>
      <path id="DejaVuSans-35" d="M 691 4666 
L 3169 4666 
L 3169 4134 
L 1269 4134 
L 1269 2991 
Q 1406 3038 1543 3061 
Q 1681 3084 1819 3084 
Q 2600 3084 3056 2656 
Q 3513 2228 3513 1497 
Q 3513 744 3044 326 
Q 2575 -91 1722 -91 
Q 1428 -91 1123 -41 
Q 819 9 494 109 
L 494 744 
Q 775 591 1075 516 
Q 1375 441 1709 441 
Q 2250 441 2565 725 
Q 2881 1009 2881 1497 
Q 2881 1984 2565 2268 
Q 2250 2553 1709 2553 
Q 1456 2553 1204 2497 
Q 953 2441 691 2322 
L 691 4666 
z
" transform="scale(0.015625)"/>
      <path id="DejaVuSans-25" d="M 4653 2053 
Q 4381 2053 4226 1822 
Q 4072 1591 4072 1178 
Q 4072 772 4226 539 
Q 4381 306 4653 306 
Q 4919 306 5073 539 
Q 5228 772 5228 1178 
Q 5228 1588 5073 1820 
Q 4919 2053 4653 2053 
z
M 4653 2450 
Q 5147 2450 5437 2106 
Q 5728 1763 5728 1178 
Q 5728 594 5436 251 
Q 5144 -91 4653 -91 
Q 4153 -91 3862 251 
Q 3572 594 3572 1178 
Q 3572 1766 3864 2108 
Q 4156 2450 4653 2450 
z
M 1428 4353 
Q 1159 4353 1004 4120 
Q 850 3888 850 3481 
Q 850 3069 1003 2837 
Q 1156 2606 1428 2606 
Q 1700 2606 1854 2837 
Q 2009 3069 2009 3481 
Q 2009 3884 1853 4118 
Q 1697 4353 1428 4353 
z
M 4250 4750 
L 4750 4750 
L 1831 -91 
L 1331 -91 
L 4250 4750 
z
M 1428 4750 
Q 1922 4750 2215 4408 
Q 2509 4066 2509 3481 
Q 2509 2891 2217 2550 
Q 1925 2209 1428 2209 
Q 931 2209 642 2551 
Q 353 2894 353 3481 
Q 353 4063 643 4406 
Q 934 4750 1428 4750 
z
" transform="scale(0.015625)"/>
      <path id="DejaVuSans-3a" d="M 750 794 
L 1409 794 
L 1409 0 
L 750 0 
L 750 794 
z
M 750 3309 
L 1409 3309 
L 1409 2516 
L 750 2516 
L 750 3309 
z
" transform="scale(0.015625)"/>
      <path id="DejaVuSans-2d" d="M 313 2009 
L 1997 2009 
L 1997 1497 
L 313 1497 
L 313 2009 
z
" transform="scale(0.015625)"/>
     </defs>
     <use xlink:href="#DejaVuSans-35"/>
     <use xlink:href="#DejaVuSans-30" x="63.623047"/>
     <use xlink:href="#DejaVuSans-25" x="127.246094"/>
     <use xlink:href="#DejaVuSans-20" x="222.265625"/>
     <use xlink:href="#DejaVuSans-3a" x="254.052734"/>
     <use xlink:href="#DejaVuSans-20" x="287.744141"/>
     <use xlink:href="#DejaVuSans-2d" x="319.53125"/>
     <use xlink:href="#DejaVuSans-31" x="355.615234"/>
     <use xlink:href="#DejaVuSans-31" x="419.238281"/>
     <use xlink:href="#DejaVuSans-35" x="482.861328"/>
     <use xlink:href="#DejaVuSans-20" x="546.484375"/>
     <use xlink:href="#DejaVuSans-64" x="578.271484"/>
     <use xlink:href="#DejaVuSans-42" x="641.748047"/>
    </g>
   </g>
   <g id="text_16">
    <!-- 75% : -106 dB -->
    <g style="fill: #808080" transform="translate(61.1712 104.00832) scale(0.1 -0.1)">
     <defs>
      <path id="DejaVuSans-37" d="M 525 4666 
L 3525 4666 
L 3525 4397 
L 1831 0 
L 1172 0 
L 2766 4134 
L 525 4134 
L 525 4666 
z
" transform="scale(0.015625)"/>
     </defs>
     <use xlink:href="#DejaVuSans-37"/>
     <use xlink:href="#DejaVuSans-35" x="63.623047"/>
     <use xlink:href="#DejaVuSans-25" x="127.246094"/>
     <use xlink:href="#DejaVuSans-20" x="222.265625"/>
     <use xlink:href="#DejaVuSans-3a" x="254.052734"/>
     <use xlink:href="#DejaVuSans-20" x="287.744141"/>
     <use xlink:href="#DejaVuSans-2d" x="319.53125"/>
     <use xlink:href="#DejaVuSans-31" x="355.615234"/>
     <use xlink:href="#DejaVuSans-30" x="419.238281"/>
     <use xlink:href="#DejaVuSans-36" x="482.861328"/>
     <use xlink:href="#DejaVuSans-20" x="546.484375"/>
     <use xlink:href="#DejaVuSans-64" x="578.271484"/>
     <use xlink:href="#DejaVuSans-42" x="641.748047"/>
    </g>
   </g>
   <g id="text_17">
    <!-- 85% : -96 dB -->
    <g style="fill: #808080" transform="translate(61.1712 77.39712) scale(0.1 -0.1)">
     <defs>
      <path id="DejaVuSans-39" d="M 703 97 
L 703 672 
Q 941 559 1184 500 
Q 1428 441 1663 441 
Q 2288 441 2617 861 
Q 2947 1281 2994 2138 
Q 2813 1869 2534 1725 
Q 2256 1581 1919 1581 
Q 1219 1581 811 2004 
Q 403 2428 403 3163 
Q 403 3881 828 4315 
Q 1253 4750 1959 4750 
Q 2769 4750 3195 4129 
Q 3622 3509 3622 2328 
Q 3622 1225 3098 567 
Q 2575 -91 1691 -91 
Q 1453 -91 1209 -44 
Q 966 3 703 97 
z
M 1959 2075 
Q 2384 2075 2632 2365 
Q 2881 2656 2881 3163 
Q 2881 3666 2632 3958 
Q 2384 4250 1959 4250 
Q 1534 4250 1286 3958 
Q 1038 3666 1038 3163 
Q 1038 2656 1286 2365 
Q 1534 2075 1959 2075 
z
" transform="scale(0.015625)"/>
     </defs>
     <use xlink:href="#DejaVuSans-38"/>
     <use xlink:href="#DejaVuSans-35" x="63.623047"/>
     <use xlink:href="#DejaVuSans-25" x="127.246094"/>
     <use xlink:href="#DejaVuSans-20" x="222.265625"/>
     <use xlink:href="#DejaVuSans-3a" x="254.052734"/>
     <use xlink:href="#DejaVuSans-20" x="287.744141"/>
     <use xlink:href="#DejaVuSans-2d" x="319.53125"/>
     <use xlink:href="#DejaVuSans-39" x="355.615234"/>
     <use xlink:href="#DejaVuSans-36" x="419.238281"/>
     <use xlink:href="#DejaVuSans-20" x="482.861328"/>
     <use xlink:href="#DejaVuSans-64" x="514.648438"/>
     <use xlink:href="#DejaVuSans-42" x="578.125"/>
    </g>
   </g>
   <g id="text_18">
    <!-- mno_other (n = 2447.2 k) -->
    <g transform="translate(158.249062 35.472) scale(0.12 -0.12)">
     <defs>
      <path id="DejaVuSans-6d" d="M 3328 2828 
Q 3544 3216 3844 3400 
Q 4144 3584 4550 3584 
Q 5097 3584 5394 3201 
Q 5691 2819 5691 2113 
L 5691 0 
L 5113 0 
L 5113 2094 
Q 5113 2597 4934 2840 
Q 4756 3084 4391 3084 
Q 3944 3084 3684 2787 
Q 3425 2491 3425 1978 
L 3425 0 
L 2847 0 
L 2847 2094 
Q 2847 2600 2669 2842 
Q 2491 3084 2119 3084 
Q 1678 3084 1418 2786 
Q 1159 2488 1159 1978 
L 1159 0 
L 581 0 
L 581 3500 
L 1159 3500 
L 1159 2956 
Q 1356 3278 1631 3431 
Q 1906 3584 2284 3584 
Q 2666 3584 2933 3390 
Q 3200 3197 3328 2828 
z
" transform="scale(0.015625)"/>
      <path id="DejaVuSans-5f" d="M 3263 -1063 
L 3263 -1509 
L -63 -1509 
L -63 -1063 
L 3263 -1063 
z
" transform="scale(0.015625)"/>
      <path id="DejaVuSans-3d" d="M 678 2906 
L 4684 2906 
L 4684 2381 
L 678 2381 
L 678 2906 
z
M 678 1631 
L 4684 1631 
L 4684 1100 
L 678 1100 
L 678 1631 
z
" transform="scale(0.015625)"/>
      <path id="DejaVuSans-6b" d="M 581 4863 
L 1159 4863 
L 1159 1991 
L 2875 3500 
L 3609 3500 
L 1753 1863 
L 3688 0 
L 2938 0 
L 1159 1709 
L 1159 0 
L 581 0 
L 581 4863 
z
" transform="scale(0.015625)"/>
     </defs>
     <use xlink:href="#DejaVuSans-6d"/>
     <use xlink:href="#DejaVuSans-6e" x="97.412109"/>
     <use xlink:href="#DejaVuSans-6f" x="160.791016"/>
     <use xlink:href="#DejaVuSans-5f" x="221.972656"/>
     <use xlink:href="#DejaVuSans-6f" x="271.972656"/>
     <use xlink:href="#DejaVuSans-74" x="333.154297"/>
     <use xlink:href="#DejaVuSans-68" x="372.363281"/>
     <use xlink:href="#DejaVuSans-65" x="435.742188"/>
     <use xlink:href="#DejaVuSans-72" x="497.265625"/>
     <use xlink:href="#DejaVuSans-20" x="538.378906"/>
     <use xlink:href="#DejaVuSans-28" x="570.166016"/>
     <use xlink:href="#DejaVuSans-6e" x="609.179688"/>
     <use xlink:href="#DejaVuSans-20" x="672.558594"/>
     <use xlink:href="#DejaVuSans-3d" x="704.345703"/>
     <use xlink:href="#DejaVuSans-20" x="788.134766"/>
     <use xlink:href="#DejaVuSans-32" x="819.921875"/>
     <use xlink:href="#DejaVuSans-34" x="883.544922"/>
     <use xlink:href="#DejaVuSans-34" x="947.167969"/>
     <use xlink:href="#DejaVuSans-37" x="1010.791016"/>
     <use xlink:href="#DejaVuSans-2e" x="1074.414062"/>
     <use xlink:href="#DejaVuSans-32" x="1106.201172"/>
     <use xlink:href="#DejaVuSans-20" x="1169.824219"/>
     <use xlink:href="#DejaVuSans-6b" x="1201.611328"/>
     <use xlink:href="#DejaVuSans-29" x="1259.521484"/>
    </g>
   </g>
  </g>
 </g>
 <defs>
  <clipPath id="p34e578234a">
   <rect x="57.6" y="41.472" width="357.12" height="266.112"/>
  </clipPath>
 </defs>
</svg>
